<?xml version="1.0" encoding="UTF-8"?>
<!DOCTYPE svg PUBLIC "-//W3C//DTD SVG 1.1//EN" "http://www.w3.org/Graphics/SVG/1.1/DTD/svg11.dtd">
<svg xmlns="http://www.w3.org/2000/svg" version="1.1" width="630px" height="500px" style="shape-rendering:geometricPrecision; text-rendering:geometricPrecision; image-rendering:optimizeQuality; fill-rule:evenodd; clip-rule:evenodd" xmlns:xlink="http://www.w3.org/1999/xlink">
<g><path style="opacity:1" fill="#3399cc" d="M -0.5,-0.5 C 209.5,-0.5 419.5,-0.5 629.5,-0.5C 629.5,32.8333 629.5,66.1667 629.5,99.5C 419.5,99.5 209.5,99.5 -0.5,99.5C -0.5,66.1667 -0.5,32.8333 -0.5,-0.5 Z"/></g>
<g><path style="opacity:1" fill="#d7f2fe" d="M -0.5,99.5 C 209.5,99.5 419.5,99.5 629.5,99.5C 629.5,199.5 629.5,299.5 629.5,399.5C 419.5,399.5 209.5,399.5 -0.5,399.5C -0.5,299.5 -0.5,199.5 -0.5,99.5 Z"/></g>
<g><path style="opacity:1" fill="#fffefe" d="M 0.5,100.5 C 209.833,100.5 419.167,100.5 628.5,100.5C 628.5,199.833 628.5,299.167 628.5,398.5C 419.167,398.5 209.833,398.5 0.5,398.5C 0.5,299.167 0.5,199.833 0.5,100.5 Z"/></g>
<g><path style="opacity:1" fill="#fddcb3" d="M 432.5,154.5 C 413.5,154.5 394.5,154.5 375.5,154.5C 375.5,159.167 375.5,163.833 375.5,168.5C 374.513,163.695 374.179,158.695 374.5,153.5C 394.007,153.17 413.341,153.503 432.5,154.5 Z"/></g>
<g><path style="opacity:1" fill="#fcc150" d="M 206.5,154.5 C 206.158,155.338 205.492,155.672 204.5,155.5C 194.725,155.05 185.059,155.716 175.5,157.5C 176.6,156.442 177.934,155.608 179.5,155C 188.494,154.5 197.494,154.334 206.5,154.5 Z"/></g>
<g><path style="opacity:1" fill="#fcbf46" d="M 301.5,160.5 C 301.5,164.833 301.5,169.167 301.5,173.5C 298.428,173.183 295.428,173.516 292.5,174.5C 292.624,175.107 292.957,175.44 293.5,175.5C 295.198,179.543 296.031,183.877 296,188.5C 298.04,190.37 299.873,192.37 301.5,194.5C 301.5,198.833 301.5,203.167 301.5,207.5C 283.833,207.5 266.167,207.5 248.5,207.5C 246.537,206.04 244.704,204.373 243,202.5C 242.5,186.503 242.333,170.503 242.5,154.5C 260.503,154.333 278.503,154.5 296.5,155C 298.373,156.704 300.04,158.537 301.5,160.5 Z"/></g>
<g><path style="opacity:1" fill="#fde6ca" d="M 360.5,154.5 C 355.833,154.5 351.167,154.5 346.5,154.5C 346.5,162.5 346.5,170.5 346.5,178.5C 345.508,178.672 344.842,178.338 344.5,177.5C 345.492,169.684 345.826,161.684 345.5,153.5C 350.695,153.179 355.695,153.513 360.5,154.5 Z"/></g>
<g><path style="opacity:1" fill="#fcc04d" d="M 319.5,155.5 C 319.167,155.5 318.833,155.5 318.5,155.5C 315.5,155.5 312.5,155.5 309.5,155.5C 309.5,170.5 309.5,185.5 309.5,200.5C 313.167,200.5 316.833,200.5 320.5,200.5C 321.167,191.833 321.833,183.167 322.5,174.5C 331.302,183.133 340.302,191.633 349.5,200C 352.482,200.498 355.482,200.665 358.5,200.5C 358.5,185.5 358.5,170.5 358.5,155.5C 354.833,155.5 351.167,155.5 347.5,155.5C 347.666,164.173 347.5,172.84 347,181.5C 346.617,180.944 346.117,180.611 345.5,180.5C 345.833,179.833 346.167,179.167 346.5,178.5C 346.5,170.5 346.5,162.5 346.5,154.5C 351.167,154.5 355.833,154.5 360.5,154.5C 362.099,156.604 363.932,158.604 366,160.5C 366.5,176.497 366.667,192.497 366.5,208.5C 363.15,208.665 359.817,208.498 356.5,208C 347.65,199.649 338.65,191.482 329.5,183.5C 328.502,191.807 328.169,200.14 328.5,208.5C 323.821,208.666 319.155,208.499 314.5,208C 312.667,206.167 310.833,204.333 309,202.5C 308.5,186.503 308.333,170.503 308.5,154.5C 312.371,154.185 316.038,154.518 319.5,155.5 Z"/></g>
<g><path style="opacity:1" fill="#fcbf47" d="M 432.5,154.5 C 434.167,156.5 435.833,158.5 437.5,160.5C 437.5,164.833 437.5,169.167 437.5,173.5C 430.313,173.175 423.313,173.509 416.5,174.5C 416.5,185.833 416.5,197.167 416.5,208.5C 411.821,208.666 407.155,208.499 402.5,208C 400.667,206.167 398.833,204.333 397,202.5C 396.5,193.173 396.334,183.839 396.5,174.5C 391.489,174.666 386.489,174.499 381.5,174C 379.63,171.96 377.63,170.127 375.5,168.5C 375.5,163.833 375.5,159.167 375.5,154.5C 394.5,154.5 413.5,154.5 432.5,154.5 Z"/></g>
<g><path style="opacity:1" fill="#fde6cb" d="M 458.5,154.5 C 453.833,154.5 449.167,154.5 444.5,154.5C 444.5,170.5 444.5,186.5 444.5,202.5C 443.504,186.342 443.17,170.009 443.5,153.5C 448.695,153.179 453.695,153.513 458.5,154.5 Z"/></g>
<g><path style="opacity:1" fill="#fcbf48" d="M 458.5,154.5 C 460.167,156.5 461.833,158.5 463.5,160.5C 463.5,176.167 463.5,191.833 463.5,207.5C 459.167,207.5 454.833,207.5 450.5,207.5C 448.5,205.833 446.5,204.167 444.5,202.5C 444.5,186.5 444.5,170.5 444.5,154.5C 449.167,154.5 453.833,154.5 458.5,154.5 Z"/></g>
<g><path style="opacity:1" fill="#fde6ca" d="M 526.5,154.5 C 521.833,154.5 517.167,154.5 512.5,154.5C 512.5,162.5 512.5,170.5 512.5,178.5C 511.508,178.672 510.842,178.338 510.5,177.5C 511.492,169.684 511.826,161.684 511.5,153.5C 516.695,153.179 521.695,153.513 526.5,154.5 Z"/></g>
<g><path style="opacity:1" fill="#fcc04d" d="M 485.5,155.5 C 485.167,155.5 484.833,155.5 484.5,155.5C 481.5,155.5 478.5,155.5 475.5,155.5C 475.5,170.5 475.5,185.5 475.5,200.5C 479.167,200.5 482.833,200.5 486.5,200.5C 487.167,191.833 487.833,183.167 488.5,174.5C 497.302,183.133 506.302,191.633 515.5,200C 518.482,200.498 521.482,200.665 524.5,200.5C 524.5,185.5 524.5,170.5 524.5,155.5C 520.833,155.5 517.167,155.5 513.5,155.5C 513.666,164.173 513.5,172.84 513,181.5C 512.617,180.944 512.117,180.611 511.5,180.5C 511.833,179.833 512.167,179.167 512.5,178.5C 512.5,170.5 512.5,162.5 512.5,154.5C 517.167,154.5 521.833,154.5 526.5,154.5C 528.099,156.604 529.932,158.604 532,160.5C 532.5,176.497 532.667,192.497 532.5,208.5C 529.15,208.665 525.817,208.498 522.5,208C 513.65,199.649 504.65,191.482 495.5,183.5C 494.502,191.807 494.169,200.14 494.5,208.5C 489.821,208.666 485.155,208.499 480.5,208C 478.667,206.167 476.833,204.333 475,202.5C 474.5,186.503 474.333,170.503 474.5,154.5C 478.371,154.185 482.038,154.518 485.5,155.5 Z"/></g>
<g><path style="opacity:1" fill="#fff9f2" d="M 16.5,194.5 C 18.9,192.704 20.5667,190.37 21.5,187.5C 29.5206,177.472 37.1872,167.139 44.5,156.5C 47.2301,155.183 50.0635,155.183 53,156.5C 62.7974,171.262 72.9641,185.762 83.5,200C 78.8333,200.667 74.1667,200.667 69.5,200C 67.1667,197 64.8333,194 62.5,191C 52.8333,190.333 43.1667,190.333 33.5,191C 31.5,194 29.5,197 27.5,200C 22.8333,200.667 18.1667,200.667 13.5,200C 14.7577,198.259 15.7577,196.426 16.5,194.5 Z"/></g>
<g><path style="opacity:1" fill="#fff9f2" d="M 204.5,155.5 C 208.354,156.291 212.021,157.791 215.5,160C 217.464,161.451 218.797,163.284 219.5,165.5C 216.518,167.474 213.518,169.474 210.5,171.5C 207.294,168.898 203.628,167.398 199.5,167C 192.916,165.859 186.583,166.526 180.5,169C 175.167,175 175.167,181 180.5,187C 181.745,187.791 183.078,188.291 184.5,188.5C 185.209,189.404 186.209,189.737 187.5,189.5C 194.327,189.876 200.994,189.043 207.5,187C 208.5,186 209.5,185 210.5,184C 205.177,183.501 199.844,183.334 194.5,183.5C 194.5,179.833 194.5,176.167 194.5,172.5C 204.167,172.5 213.833,172.5 223.5,172.5C 225.62,187.113 219.62,196.28 205.5,200C 197.5,200.667 189.5,200.667 181.5,200C 172.572,197.906 167.239,192.406 165.5,183.5C 165.274,178.438 165.608,173.438 166.5,168.5C 168.402,163.932 171.402,160.265 175.5,157.5C 185.059,155.716 194.725,155.05 204.5,155.5 Z"/></g>
<g><path style="opacity:1" fill="#fffaf4" d="M 243.5,155.5 C 260.5,155.5 277.5,155.5 294.5,155.5C 294.5,159.167 294.5,162.833 294.5,166.5C 281.5,166.5 268.5,166.5 255.5,166.5C 255.5,168.5 255.5,170.5 255.5,172.5C 266.5,172.5 277.5,172.5 288.5,172.5C 288.5,176.167 288.5,179.833 288.5,183.5C 277.5,183.5 266.5,183.5 255.5,183.5C 255.5,185.5 255.5,187.5 255.5,189.5C 268.5,189.5 281.5,189.5 294.5,189.5C 294.5,193.167 294.5,196.833 294.5,200.5C 277.5,200.5 260.5,200.5 243.5,200.5C 243.5,185.5 243.5,170.5 243.5,155.5 Z"/></g>
<g><path style="opacity:1" fill="#fffaf4" d="M 318.5,155.5 C 327.173,164.173 336.173,172.506 345.5,180.5C 346.117,180.611 346.617,180.944 347,181.5C 347.5,172.84 347.666,164.173 347.5,155.5C 351.167,155.5 354.833,155.5 358.5,155.5C 358.5,170.5 358.5,185.5 358.5,200.5C 355.482,200.665 352.482,200.498 349.5,200C 340.302,191.633 331.302,183.133 322.5,174.5C 322.44,173.957 322.107,173.624 321.5,173.5C 320.502,182.475 320.168,191.475 320.5,200.5C 316.833,200.5 313.167,200.5 309.5,200.5C 309.5,185.5 309.5,170.5 309.5,155.5C 312.5,155.5 315.5,155.5 318.5,155.5 Z"/></g>
<g><path style="opacity:1" fill="#fff8f1" d="M 376.5,155.5 C 394.5,155.5 412.5,155.5 430.5,155.5C 430.5,159.167 430.5,162.833 430.5,166.5C 423.5,166.5 416.5,166.5 409.5,166.5C 409.5,177.833 409.5,189.167 409.5,200.5C 405.5,200.5 401.5,200.5 397.5,200.5C 397.5,189.167 397.5,177.833 397.5,166.5C 390.5,166.5 383.5,166.5 376.5,166.5C 376.5,162.833 376.5,159.167 376.5,155.5 Z"/></g>
<g><path style="opacity:1" fill="#fefcf9" d="M 445.5,155.5 C 449.167,155.5 452.833,155.5 456.5,155.5C 456.5,170.5 456.5,185.5 456.5,200.5C 452.833,200.5 449.167,200.5 445.5,200.5C 445.5,185.5 445.5,170.5 445.5,155.5 Z"/></g>
<g><path style="opacity:1" fill="#fffaf4" d="M 484.5,155.5 C 493.173,164.173 502.173,172.506 511.5,180.5C 512.117,180.611 512.617,180.944 513,181.5C 513.5,172.84 513.666,164.173 513.5,155.5C 517.167,155.5 520.833,155.5 524.5,155.5C 524.5,170.5 524.5,185.5 524.5,200.5C 521.482,200.665 518.482,200.498 515.5,200C 506.302,191.633 497.302,183.133 488.5,174.5C 488.44,173.957 488.107,173.624 487.5,173.5C 486.502,182.475 486.168,191.475 486.5,200.5C 482.833,200.5 479.167,200.5 475.5,200.5C 475.5,185.5 475.5,170.5 475.5,155.5C 478.5,155.5 481.5,155.5 484.5,155.5 Z"/></g>
<g><path style="opacity:1" fill="#fff9f2" d="M 540.5,194.5 C 542.9,192.704 544.567,190.37 545.5,187.5C 553.521,177.472 561.187,167.139 568.5,156.5C 571.23,155.183 574.063,155.183 577,156.5C 586.797,171.262 596.964,185.762 607.5,200C 602.833,200.667 598.167,200.667 593.5,200C 591.167,197 588.833,194 586.5,191C 576.833,190.333 567.167,190.333 557.5,191C 555.5,194 553.5,197 551.5,200C 546.833,200.667 542.167,200.667 537.5,200C 538.758,198.259 539.758,196.426 540.5,194.5 Z"/></g>
<g><path style="opacity:1" fill="#fcc667" d="M 43.5,156.5 C 43.8333,156.5 44.1667,156.5 44.5,156.5C 37.1872,167.139 29.5206,177.472 21.5,187.5C 28.0637,176.606 35.397,166.272 43.5,156.5 Z"/></g>
<g><path style="opacity:1" fill="#fcc04c" d="M 138.5,200.5 C 138.833,200.5 139.167,200.5 139.5,200.5C 144.511,200.666 149.511,200.499 154.5,200C 149.313,194.314 144.313,188.481 139.5,182.5C 146.942,176.509 148.442,169.176 144,160.5C 141.749,158.623 139.249,157.123 136.5,156C 122.837,155.5 109.171,155.333 95.5,155.5C 95.5,170.5 95.5,185.5 95.5,200.5C 99.5,200.5 103.5,200.5 107.5,200.5C 107.5,194.833 107.5,189.167 107.5,183.5C 113.509,183.334 119.509,183.501 125.5,184C 127.054,186.287 128.721,188.454 130.5,190.5C 124.974,190.179 119.64,190.512 114.5,191.5C 114.5,197.167 114.5,202.833 114.5,208.5C 109.821,208.666 105.155,208.499 100.5,208C 98.6667,206.167 96.8333,204.333 95,202.5C 94.5001,186.503 94.3334,170.503 94.5,154.5C 108.837,154.333 123.171,154.5 137.5,155C 149.9,159.709 155.067,168.542 153,181.5C 151.913,184.581 150.08,187.081 147.5,189C 152.444,195.615 157.777,201.948 163.5,208C 157.5,208.667 151.5,208.667 145.5,208C 142.961,205.63 140.628,203.13 138.5,200.5 Z"/></g>
<g><path style="opacity:1" fill="#fff8f0" d="M 139.5,200.5 C 136.49,197.126 133.49,193.792 130.5,190.5C 128.721,188.454 127.054,186.287 125.5,184C 119.509,183.501 113.509,183.334 107.5,183.5C 107.5,189.167 107.5,194.833 107.5,200.5C 103.5,200.5 99.5,200.5 95.5,200.5C 95.5,185.5 95.5,170.5 95.5,155.5C 109.171,155.333 122.837,155.5 136.5,156C 139.249,157.123 141.749,158.623 144,160.5C 148.442,169.176 146.942,176.509 139.5,182.5C 144.313,188.481 149.313,194.314 154.5,200C 149.511,200.499 144.511,200.666 139.5,200.5 Z"/></g>
<g><path style="opacity:1" fill="#fdc86f" d="M 206.5,154.5 C 212.602,155.535 217.269,158.535 220.5,163.5C 220.672,164.492 220.338,165.158 219.5,165.5C 218.797,163.284 217.464,161.451 215.5,160C 212.021,157.791 208.354,156.291 204.5,155.5C 205.492,155.672 206.158,155.338 206.5,154.5 Z"/></g>
<g><path style="opacity:1" fill="#fcc667" d="M 567.5,156.5 C 567.833,156.5 568.167,156.5 568.5,156.5C 561.187,167.139 553.521,177.472 545.5,187.5C 552.064,176.606 559.397,166.272 567.5,156.5 Z"/></g>
<g><path style="opacity:1" fill="#fcc04c" d="M 46.5,159.5 C 48.1439,159.286 49.6439,159.62 51,160.5C 59.2901,172.246 67.4567,184.08 75.5,196C 74.1667,196.667 72.8333,196.667 71.5,196C 69.3056,193.305 67.3056,190.472 65.5,187.5C 54.1667,186.167 42.8333,186.167 31.5,187.5C 29.3771,190.246 27.3771,193.079 25.5,196C 23.8333,196.667 22.1667,196.667 20.5,196C 29.3858,183.954 38.0524,171.788 46.5,159.5 Z"/></g>
<g><path style="opacity:1" fill="#fcc04b" d="M 99.5,159.5 C 111.505,159.333 123.505,159.5 135.5,160C 142.482,163.169 144.316,168.336 141,175.5C 138.404,177.549 135.571,179.215 132.5,180.5C 136.645,185.813 140.979,190.98 145.5,196C 143.741,196.798 142.074,196.631 140.5,195.5C 135.93,190.687 131.597,185.687 127.5,180.5C 119.528,179.502 111.528,179.169 103.5,179.5C 103.5,185.167 103.5,190.833 103.5,196.5C 102.167,196.5 100.833,196.5 99.5,196.5C 99.5,184.167 99.5,171.833 99.5,159.5 Z"/></g>
<g><path style="opacity:1" fill="#fcbf4a" d="M 198.5,176.5 C 205.5,176.5 212.5,176.5 219.5,176.5C 219.5,177.833 219.5,179.167 219.5,180.5C 218.405,189.905 213.072,195.072 203.5,196C 196.136,196.765 188.803,196.598 181.5,195.5C 172.766,192.933 168.433,187.1 168.5,178C 168.139,169.721 171.806,164.054 179.5,161C 187.77,159.463 196.103,159.13 204.5,160C 208.175,160.557 211.508,161.89 214.5,164C 213.034,164.635 211.7,165.469 210.5,166.5C 205.287,163.447 199.621,162.114 193.5,162.5C 177.926,161.239 171.092,168.239 173,183.5C 175.007,188.838 178.841,192.004 184.5,193C 191.567,193.839 198.567,193.506 205.5,192C 211.268,189.737 214.601,185.57 215.5,179.5C 209.833,179.5 204.167,179.5 198.5,179.5C 198.5,178.5 198.5,177.5 198.5,176.5 Z"/></g>
<g><path style="opacity:1" fill="#fbbf44" d="M 248.5,159.5 C 262.5,159.5 276.5,159.5 290.5,159.5C 290.5,160.5 290.5,161.5 290.5,162.5C 277.5,162.5 264.5,162.5 251.5,162.5C 251.5,166.833 251.5,171.167 251.5,175.5C 261.987,176.494 272.654,176.828 283.5,176.5C 283.5,177.5 283.5,178.5 283.5,179.5C 272.654,179.172 261.987,179.506 251.5,180.5C 251.5,184.833 251.5,189.167 251.5,193.5C 264.5,193.5 277.5,193.5 290.5,193.5C 290.5,194.5 290.5,195.5 290.5,196.5C 276.5,196.5 262.5,196.5 248.5,196.5C 248.5,184.167 248.5,171.833 248.5,159.5 Z"/></g>
<g><path style="opacity:1" fill="#fcc150" d="M 351.5,159.5 C 352.5,159.5 353.5,159.5 354.5,159.5C 354.5,171.833 354.5,184.167 354.5,196.5C 353.5,196.5 352.5,196.5 351.5,196.5C 340.229,186.4 329.063,176.067 318,165.5C 317.5,175.828 317.334,186.161 317.5,196.5C 316.167,196.5 314.833,196.5 313.5,196.5C 313.5,184.167 313.5,171.833 313.5,159.5C 314.873,159.343 316.207,159.51 317.5,160C 328.35,170.351 339.35,180.517 350.5,190.5C 351.499,180.188 351.832,169.855 351.5,159.5 Z"/></g>
<g><path style="opacity:1" fill="#fddfb8" d="M 351.5,159.5 C 352.568,158.566 353.901,158.232 355.5,158.5C 355.5,171.5 355.5,184.5 355.5,197.5C 353.901,197.768 352.568,197.434 351.5,196.5C 352.5,196.5 353.5,196.5 354.5,196.5C 354.5,184.167 354.5,171.833 354.5,159.5C 353.5,159.5 352.5,159.5 351.5,159.5 Z"/></g>
<g><path style="opacity:1" fill="#fcc04b" d="M 380.5,159.5 C 395.833,159.5 411.167,159.5 426.5,159.5C 426.5,160.5 426.5,161.5 426.5,162.5C 419.5,162.5 412.5,162.5 405.5,162.5C 405.5,173.833 405.5,185.167 405.5,196.5C 404.167,196.5 402.833,196.5 401.5,196.5C 401.5,185.167 401.5,173.833 401.5,162.5C 394.5,162.5 387.5,162.5 380.5,162.5C 380.5,161.5 380.5,160.5 380.5,159.5 Z"/></g>
<g><path style="opacity:1" fill="#fbbf44" d="M 449.5,159.5 C 450.5,159.5 451.5,159.5 452.5,159.5C 452.5,171.833 452.5,184.167 452.5,196.5C 451.5,196.5 450.5,196.5 449.5,196.5C 449.5,184.167 449.5,171.833 449.5,159.5 Z"/></g>
<g><path style="opacity:1" fill="#fddfbb" d="M 449.5,159.5 C 450.568,158.566 451.901,158.232 453.5,158.5C 453.5,171.5 453.5,184.5 453.5,197.5C 451.901,197.768 450.568,197.434 449.5,196.5C 450.5,196.5 451.5,196.5 452.5,196.5C 452.5,184.167 452.5,171.833 452.5,159.5C 451.5,159.5 450.5,159.5 449.5,159.5 Z"/></g>
<g><path style="opacity:1" fill="#fcc150" d="M 517.5,159.5 C 518.5,159.5 519.5,159.5 520.5,159.5C 520.5,171.833 520.5,184.167 520.5,196.5C 519.5,196.5 518.5,196.5 517.5,196.5C 506.229,186.4 495.063,176.067 484,165.5C 483.5,175.828 483.334,186.161 483.5,196.5C 482.167,196.5 480.833,196.5 479.5,196.5C 479.5,184.167 479.5,171.833 479.5,159.5C 480.873,159.343 482.207,159.51 483.5,160C 494.35,170.351 505.35,180.517 516.5,190.5C 517.499,180.188 517.832,169.855 517.5,159.5 Z"/></g>
<g><path style="opacity:1" fill="#fddfb8" d="M 517.5,159.5 C 518.568,158.566 519.901,158.232 521.5,158.5C 521.5,171.5 521.5,184.5 521.5,197.5C 519.901,197.768 518.568,197.434 517.5,196.5C 518.5,196.5 519.5,196.5 520.5,196.5C 520.5,184.167 520.5,171.833 520.5,159.5C 519.5,159.5 518.5,159.5 517.5,159.5 Z"/></g>
<g><path style="opacity:1" fill="#fcc04c" d="M 570.5,159.5 C 572.144,159.286 573.644,159.62 575,160.5C 583.29,172.246 591.457,184.08 599.5,196C 598.167,196.667 596.833,196.667 595.5,196C 593.306,193.305 591.306,190.472 589.5,187.5C 578.167,186.167 566.833,186.167 555.5,187.5C 553.377,190.246 551.377,193.079 549.5,196C 547.833,196.667 546.167,196.667 544.5,196C 553.386,183.954 562.052,171.788 570.5,159.5 Z"/></g>
<g><path style="opacity:1" fill="#fccf8b" d="M 301.5,160.5 C 302.486,164.97 302.819,169.637 302.5,174.5C 299.287,174.19 296.287,174.523 293.5,175.5C 292.957,175.44 292.624,175.107 292.5,174.5C 295.428,173.516 298.428,173.183 301.5,173.5C 301.5,169.167 301.5,164.833 301.5,160.5 Z"/></g>
<g><path style="opacity:1" fill="#fcc874" d="M 463.5,160.5 C 464.496,176.325 464.83,192.325 464.5,208.5C 459.637,208.819 454.97,208.486 450.5,207.5C 454.833,207.5 459.167,207.5 463.5,207.5C 463.5,191.833 463.5,176.167 463.5,160.5 Z"/></g>
<g><path style="opacity:1" fill="#fcc35c" d="M 175.5,157.5 C 171.402,160.265 168.402,163.932 166.5,168.5C 165.833,168.5 165.5,168.167 165.5,167.5C 167.167,162.5 170.5,159.167 175.5,157.5 Z"/></g>
<g><path style="opacity:1" fill="#fffaf6" d="M 103.5,162.5 C 113.506,162.334 123.506,162.5 133.5,163C 139.006,164.841 140.506,168.341 138,173.5C 136.67,174.582 135.17,175.249 133.5,175.5C 123.5,175.5 113.5,175.5 103.5,175.5C 103.5,171.167 103.5,166.833 103.5,162.5 Z"/></g>
<g><path style="opacity:1" fill="#fcc04b" d="M 220.5,163.5 C 222.797,165.294 224.963,167.294 227,169.5C 227.684,170.784 227.517,171.951 226.5,173C 231.316,177.055 232.816,182.222 231,188.5C 229.725,198.441 224.225,204.608 214.5,207C 196.842,212.225 181.676,208.392 169,195.5C 166.425,192.274 164.925,188.607 164.5,184.5C 164.5,183.833 164.833,183.5 165.5,183.5C 167.239,192.406 172.572,197.906 181.5,200C 189.5,200.667 197.5,200.667 205.5,200C 219.62,196.28 225.62,187.113 223.5,172.5C 213.833,172.5 204.167,172.5 194.5,172.5C 193.26,173.659 191.926,174.659 190.5,175.5C 184.91,177.456 182.576,181.456 183.5,187.5C 184.5,187.5 185.5,187.5 186.5,187.5C 186.158,188.338 185.492,188.672 184.5,188.5C 183.078,188.291 181.745,187.791 180.5,187C 175.167,181 175.167,175 180.5,169C 186.583,166.526 192.916,165.859 199.5,167C 203.628,167.398 207.294,168.898 210.5,171.5C 213.518,169.474 216.518,167.474 219.5,165.5C 220.338,165.158 220.672,164.492 220.5,163.5 Z"/></g>
<g><path style="opacity:1" fill="#fdc76c" d="M 318.5,155.5 C 318.833,155.5 319.167,155.5 319.5,155.5C 327.833,162.833 336.167,170.167 344.5,177.5C 344.842,178.338 345.508,178.672 346.5,178.5C 346.167,179.167 345.833,179.833 345.5,180.5C 336.173,172.506 327.173,164.173 318.5,155.5 Z"/></g>
<g><path style="opacity:1" fill="#fdc76c" d="M 484.5,155.5 C 484.833,155.5 485.167,155.5 485.5,155.5C 493.833,162.833 502.167,170.167 510.5,177.5C 510.842,178.338 511.508,178.672 512.5,178.5C 512.167,179.167 511.833,179.833 511.5,180.5C 502.173,172.506 493.173,164.173 484.5,155.5 Z"/></g>
<g><path style="opacity:1" fill="#fff7ee" d="M 47.5,164.5 C 49.0174,164.511 50.1841,165.177 51,166.5C 54.4437,172.276 58.2771,177.776 62.5,183C 53.1667,183.667 43.8333,183.667 34.5,183C 39.2121,177.067 43.5455,170.9 47.5,164.5 Z"/></g>
<g><path style="opacity:1" fill="#fff7ee" d="M 571.5,164.5 C 573.017,164.511 574.184,165.177 575,166.5C 578.444,172.276 582.277,177.776 586.5,183C 577.167,183.667 567.833,183.667 558.5,183C 563.212,177.067 567.545,170.9 571.5,164.5 Z"/></g>
<g><path style="opacity:1" fill="#fcc04a" d="M 106.5,166.5 C 115.173,166.334 123.84,166.5 132.5,167C 136.5,168.667 136.5,170.333 132.5,172C 123.84,172.5 115.173,172.666 106.5,172.5C 106.5,170.5 106.5,168.5 106.5,166.5 Z"/></g>
<g><path style="opacity:1" fill="#fcc04c" d="M 47.5,170.5 C 50.3924,172.731 52.7258,175.564 54.5,179C 50.4589,179.827 46.4589,179.66 42.5,178.5C 44.6893,176.113 46.3559,173.447 47.5,170.5 Z"/></g>
<g><path style="opacity:1" fill="#fcc04c" d="M 571.5,170.5 C 574.392,172.731 576.726,175.564 578.5,179C 574.459,179.827 570.459,179.66 566.5,178.5C 568.689,176.113 570.356,173.447 571.5,170.5 Z"/></g>
<g><path style="opacity:1" fill="#fcce88" d="M 194.5,172.5 C 194.5,176.167 194.5,179.833 194.5,183.5C 193.662,183.842 193.328,184.508 193.5,185.5C 193.119,181.881 192.119,178.548 190.5,175.5C 191.926,174.659 193.26,173.659 194.5,172.5 Z"/></g>
<g><path style="opacity:1" fill="#fccd85" d="M 437.5,160.5 C 438.486,164.97 438.819,169.637 438.5,174.5C 431.167,174.5 423.833,174.5 416.5,174.5C 423.313,173.509 430.313,173.175 437.5,173.5C 437.5,169.167 437.5,164.833 437.5,160.5 Z"/></g>
<g><path style="opacity:1" fill="#fde0bc" d="M 322.5,174.5 C 321.833,183.167 321.167,191.833 320.5,200.5C 320.168,191.475 320.502,182.475 321.5,173.5C 322.107,173.624 322.44,173.957 322.5,174.5 Z"/></g>
<g><path style="opacity:1" fill="#fde0bc" d="M 488.5,174.5 C 487.833,183.167 487.167,191.833 486.5,200.5C 486.168,191.475 486.502,182.475 487.5,173.5C 488.107,173.624 488.44,173.957 488.5,174.5 Z"/></g>
<g><path style="opacity:1" fill="#feddb4" d="M 103.5,162.5 C 103.5,166.833 103.5,171.167 103.5,175.5C 113.5,175.5 123.5,175.5 133.5,175.5C 123.347,176.494 113.014,176.828 102.5,176.5C 102.181,171.637 102.514,166.97 103.5,162.5 Z"/></g>
<g><path style="opacity:1" fill="#fffbf8" d="M 190.5,175.5 C 192.119,178.548 193.119,181.881 193.5,185.5C 193.5,186.167 193.833,186.5 194.5,186.5C 192.052,187.473 189.385,187.806 186.5,187.5C 185.5,187.5 184.5,187.5 183.5,187.5C 182.576,181.456 184.91,177.456 190.5,175.5 Z"/></g>
<g><path style="opacity:1" fill="#fde4c5" d="M 198.5,176.5 C 205.648,175.508 212.981,175.175 220.5,175.5C 220.784,177.415 220.451,179.081 219.5,180.5C 219.5,179.167 219.5,177.833 219.5,176.5C 212.5,176.5 205.5,176.5 198.5,176.5 Z"/></g>
<g><path style="opacity:1" fill="#fee2c0" d="M 251.5,175.5 C 262.5,175.5 273.5,175.5 284.5,175.5C 284.5,177.167 284.5,178.833 284.5,180.5C 273.5,180.5 262.5,180.5 251.5,180.5C 261.987,179.506 272.654,179.172 283.5,179.5C 283.5,178.5 283.5,177.5 283.5,176.5C 272.654,176.828 261.987,176.494 251.5,175.5 Z"/></g>
<g><path style="opacity:1" fill="#fdcd81" d="M 165.5,167.5 C 165.5,168.167 165.833,168.5 166.5,168.5C 165.608,173.438 165.274,178.438 165.5,183.5C 164.833,183.5 164.5,183.833 164.5,184.5C 163.117,178.756 163.45,173.09 165.5,167.5 Z"/></g>
<g><path style="opacity:1" fill="#fcbf4a" d="M 194.5,183.5 C 199.844,183.334 205.177,183.501 210.5,184C 209.5,185 208.5,186 207.5,187C 200.994,189.043 194.327,189.876 187.5,189.5C 190.028,188.834 192.694,188.168 195.5,187.5C 195.376,186.893 195.043,186.56 194.5,186.5C 193.833,186.5 193.5,186.167 193.5,185.5C 193.328,184.508 193.662,183.842 194.5,183.5 Z"/></g>
<g><path style="opacity:1" fill="#fdd9a8" d="M 194.5,186.5 C 195.043,186.56 195.376,186.893 195.5,187.5C 192.694,188.168 190.028,188.834 187.5,189.5C 186.209,189.737 185.209,189.404 184.5,188.5C 185.492,188.672 186.158,188.338 186.5,187.5C 189.385,187.806 192.052,187.473 194.5,186.5 Z"/></g>
<g><path style="opacity:1" fill="#fcc04c" d="M 90.5,206.5 C 85.6946,207.487 80.6946,207.821 75.5,207.5C 72.3694,204.871 69.3694,202.038 66.5,199C 57.8333,198.333 49.1667,198.333 40.5,199C 38.3056,201.695 36.3056,204.528 34.5,207.5C 28.5276,208.664 22.5276,208.83 16.5,208C 14.5,206 12.5,204 10.5,202C 12.159,199.156 14.159,196.656 16.5,194.5C 15.7577,196.426 14.7577,198.259 13.5,200C 18.1667,200.667 22.8333,200.667 27.5,200C 29.5,197 31.5,194 33.5,191C 43.1667,190.333 52.8333,190.333 62.5,191C 64.8333,194 67.1667,197 69.5,200C 74.1667,200.667 78.8333,200.667 83.5,200C 72.9641,185.762 62.7974,171.262 53,156.5C 50.0635,155.183 47.2301,155.183 44.5,156.5C 44.1667,156.5 43.8333,156.5 43.5,156.5C 49.6334,152.991 54.8001,154.324 59,160.5C 69.7208,175.714 80.2208,191.047 90.5,206.5 Z"/></g>
<g><path style="opacity:1" fill="#fcc973" d="M 114.5,191.5 C 119.64,190.512 124.974,190.179 130.5,190.5C 133.49,193.792 136.49,197.126 139.5,200.5C 139.167,200.5 138.833,200.5 138.5,200.5C 135.334,198.166 132.667,195.333 130.5,192C 125.177,191.501 119.844,191.334 114.5,191.5 Z"/></g>
<g><path style="opacity:1" fill="#fcc04c" d="M 614.5,206.5 C 609.695,207.487 604.695,207.821 599.5,207.5C 596.369,204.871 593.369,202.038 590.5,199C 581.833,198.333 573.167,198.333 564.5,199C 562.306,201.695 560.306,204.528 558.5,207.5C 552.528,208.664 546.528,208.83 540.5,208C 538.5,206 536.5,204 534.5,202C 536.159,199.156 538.159,196.656 540.5,194.5C 539.758,196.426 538.758,198.259 537.5,200C 542.167,200.667 546.833,200.667 551.5,200C 553.5,197 555.5,194 557.5,191C 567.167,190.333 576.833,190.333 586.5,191C 588.833,194 591.167,197 593.5,200C 598.167,200.667 602.833,200.667 607.5,200C 596.964,185.762 586.797,171.262 577,156.5C 574.063,155.183 571.23,155.183 568.5,156.5C 568.167,156.5 567.833,156.5 567.5,156.5C 573.633,152.991 578.8,154.324 583,160.5C 593.721,175.714 604.221,191.047 614.5,206.5 Z"/></g>
<g><path style="opacity:1" fill="#fcc45f" d="M 21.5,187.5 C 20.5667,190.37 18.9,192.704 16.5,194.5C 17.4333,191.63 19.1,189.296 21.5,187.5 Z"/></g>
<g><path style="opacity:1" fill="#fcc45f" d="M 545.5,187.5 C 544.567,190.37 542.9,192.704 540.5,194.5C 541.433,191.63 543.1,189.296 545.5,187.5 Z"/></g>
<g><path style="opacity:1" fill="#fedfb9" d="M 248.5,159.5 C 248.5,171.833 248.5,184.167 248.5,196.5C 262.5,196.5 276.5,196.5 290.5,196.5C 276.343,197.496 262.01,197.829 247.5,197.5C 247.171,184.656 247.505,171.989 248.5,159.5 Z"/></g>
<g><path style="opacity:1" fill="#fccc84" d="M 90.5,206.5 C 91.0431,206.56 91.3764,206.893 91.5,207.5C 86.0136,208.815 80.6803,208.815 75.5,207.5C 80.6946,207.821 85.6946,207.487 90.5,206.5 Z"/></g>
<g><path style="opacity:1" fill="#fdcd86" d="M 301.5,194.5 C 302.486,198.97 302.819,203.637 302.5,208.5C 284.326,208.83 266.326,208.497 248.5,207.5C 266.167,207.5 283.833,207.5 301.5,207.5C 301.5,203.167 301.5,198.833 301.5,194.5 Z"/></g>
<g><path style="opacity:1" fill="#fccc84" d="M 614.5,206.5 C 615.043,206.56 615.376,206.893 615.5,207.5C 610.014,208.815 604.68,208.815 599.5,207.5C 604.695,207.821 609.695,207.487 614.5,206.5 Z"/></g>
<g><path style="opacity:1" fill="#fcbf49" d="M 195.5,219.5 C 202.655,218.345 209.988,218.178 217.5,219C 218.64,220.973 219.973,222.807 221.5,224.5C 212.514,233.986 203.348,243.319 194,252.5C 193.5,259.158 193.334,265.825 193.5,272.5C 188.821,272.666 184.155,272.499 179.5,272C 177.667,270.167 175.833,268.333 174,266.5C 173.5,259.842 173.334,253.175 173.5,246.5C 174.49,252.31 174.823,258.31 174.5,264.5C 178.167,264.5 181.833,264.5 185.5,264.5C 185.334,258.491 185.501,252.491 186,246.5C 194.833,237.667 203.667,228.833 212.5,220C 207.177,219.501 201.844,219.334 196.5,219.5C 196.167,219.5 195.833,219.5 195.5,219.5 Z"/></g>
<g><path style="opacity:1" fill="#fcbf46" d="M 358.5,251.5 C 358.158,252.338 357.492,252.672 356.5,252.5C 352.557,251.724 350.057,249.391 349,245.5C 348.5,236.84 348.334,228.173 348.5,219.5C 344.833,219.5 341.167,219.5 337.5,219.5C 336.833,228.5 336.167,237.5 335.5,246.5C 335.5,237.167 335.5,227.833 335.5,218.5C 340.511,218.334 345.511,218.501 350.5,219C 352,220.5 353.5,222 355,223.5C 355.5,232.827 355.666,242.161 355.5,251.5C 356.5,251.5 357.5,251.5 358.5,251.5 Z"/></g>
<g><path style="opacity:1" fill="#fdd6a1" d="M 396.5,218.5 C 391.833,218.5 387.167,218.5 382.5,218.5C 382.174,226.684 382.508,234.684 383.5,242.5C 383.737,243.791 383.404,244.791 382.5,245.5C 382.672,244.508 382.338,243.842 381.5,243.5C 381.5,234.833 381.5,226.167 381.5,217.5C 386.695,217.179 391.695,217.513 396.5,218.5 Z"/></g>
<g><path style="opacity:1" fill="#fcc04d" d="M 396.5,218.5 C 398.127,220.63 399.96,222.63 402,224.5C 402.667,233.833 402.667,243.167 402,252.5C 401.135,259.742 397.635,265.242 391.5,269C 376.79,274.326 362.457,273.66 348.5,267C 342.083,262.315 338.083,256.148 336.5,248.5C 336.5,247.833 336.833,247.5 337.5,247.5C 339.239,256.406 344.572,261.906 353.5,264C 361.5,264.667 369.5,264.667 377.5,264C 385.901,261.932 391.401,256.766 394,248.5C 394.5,238.839 394.666,229.172 394.5,219.5C 390.833,219.5 387.167,219.5 383.5,219.5C 383.5,227.167 383.5,234.833 383.5,242.5C 382.508,234.684 382.174,226.684 382.5,218.5C 387.167,218.5 391.833,218.5 396.5,218.5 Z"/></g>
<g><path style="opacity:1" fill="#fff8f1" d="M 196.5,219.5 C 201.844,219.334 207.177,219.501 212.5,220C 203.667,228.833 194.833,237.667 186,246.5C 185.501,252.491 185.334,258.491 185.5,264.5C 181.833,264.5 178.167,264.5 174.5,264.5C 174.823,258.31 174.49,252.31 173.5,246.5C 165.036,237.535 156.369,228.702 147.5,220C 152.833,219.333 158.167,219.333 163.5,220C 169,225.5 174.5,231 180,236.5C 185.703,230.965 191.203,225.298 196.5,219.5 Z"/></g>
<g><path style="opacity:1" fill="#fcc462" d="M 195.5,219.5 C 195.833,219.5 196.167,219.5 196.5,219.5C 191.203,225.298 185.703,230.965 180,236.5C 174.5,231 169,225.5 163.5,220C 158.167,219.333 152.833,219.333 147.5,220C 156.369,228.702 165.036,237.535 173.5,246.5C 163.421,237.925 153.754,228.758 144.5,219C 151.167,218.333 157.833,218.333 164.5,219C 169.667,224.167 174.833,229.333 180,234.5C 185.035,229.297 190.202,224.297 195.5,219.5 Z"/></g>
<g><path style="opacity:1" fill="#fff7ef" d="M 274.5,243.5 C 268.92,240.03 267.087,235.03 269,228.5C 271.94,224.963 275.44,222.297 279.5,220.5C 287.144,219.52 294.811,219.353 302.5,220C 309.023,220.927 314.356,223.927 318.5,229C 315.42,231.29 312.253,233.457 309,235.5C 301.807,231.062 293.974,229.562 285.5,231C 281.67,231.407 281.003,232.74 283.5,235C 291.471,236.219 299.471,237.219 307.5,238C 313.66,238.829 318.16,241.996 321,247.5C 320.944,256.24 316.444,261.407 307.5,263C 298.896,264.542 290.23,264.876 281.5,264C 275.75,263.209 270.917,260.709 267,256.5C 266.018,255.241 265.685,253.908 266,252.5C 268.916,250.959 271.749,249.293 274.5,247.5C 280.301,252.133 286.968,254.133 294.5,253.5C 297.167,253.333 299.833,253.167 302.5,253C 304.619,252.902 306.286,252.069 307.5,250.5C 296.382,248.735 285.382,246.402 274.5,243.5 Z"/></g>
<g><path style="opacity:1" fill="#fee3c1" d="M 337.5,219.5 C 337.5,228.833 337.5,238.167 337.5,247.5C 336.833,247.5 336.5,247.833 336.5,248.5C 335.662,248.158 335.328,247.492 335.5,246.5C 336.167,237.5 336.833,228.5 337.5,219.5 Z"/></g>
<g><path style="opacity:1" fill="#fff9f2" d="M 337.5,219.5 C 341.167,219.5 344.833,219.5 348.5,219.5C 348.334,228.173 348.5,236.84 349,245.5C 350.057,249.391 352.557,251.724 356.5,252.5C 357.209,253.404 358.209,253.737 359.5,253.5C 365.593,253.861 371.593,253.361 377.5,252C 380.493,250.841 382.16,248.675 382.5,245.5C 383.404,244.791 383.737,243.791 383.5,242.5C 383.5,234.833 383.5,227.167 383.5,219.5C 387.167,219.5 390.833,219.5 394.5,219.5C 394.666,229.172 394.5,238.839 394,248.5C 391.401,256.766 385.901,261.932 377.5,264C 369.5,264.667 361.5,264.667 353.5,264C 344.572,261.906 339.239,256.406 337.5,247.5C 337.5,238.167 337.5,228.833 337.5,219.5 Z"/></g>
<g><path style="opacity:1" fill="#fff7ef" d="M 420.5,243.5 C 414.92,240.03 413.087,235.03 415,228.5C 417.94,224.963 421.44,222.297 425.5,220.5C 433.144,219.52 440.811,219.353 448.5,220C 455.023,220.927 460.356,223.927 464.5,229C 461.42,231.29 458.253,233.457 455,235.5C 447.807,231.062 439.974,229.562 431.5,231C 427.67,231.407 427.003,232.74 429.5,235C 437.471,236.219 445.471,237.219 453.5,238C 459.66,238.829 464.16,241.996 467,247.5C 466.944,256.24 462.444,261.407 453.5,263C 444.896,264.542 436.23,264.876 427.5,264C 421.75,263.209 416.917,260.709 413,256.5C 412.018,255.241 411.685,253.908 412,252.5C 414.916,250.959 417.749,249.293 420.5,247.5C 426.301,252.133 432.968,254.133 440.5,253.5C 443.167,253.333 445.833,253.167 448.5,253C 450.619,252.902 452.286,252.069 453.5,250.5C 442.382,248.735 431.382,246.402 420.5,243.5 Z"/></g>
<g><path style="opacity:1" fill="#fcc04b" d="M 157.5,224.5 C 158.946,223.387 160.613,223.22 162.5,224C 168.333,229.833 174.167,235.667 180,241.5C 185.833,235.667 191.667,229.833 197.5,224C 199.167,223.333 200.833,223.333 202.5,224C 195.667,230.833 188.833,237.667 182,244.5C 181.501,249.823 181.334,255.156 181.5,260.5C 180.5,260.5 179.5,260.5 178.5,260.5C 178.666,255.156 178.499,249.823 178,244.5C 171.298,237.631 164.465,230.964 157.5,224.5 Z"/></g>
<g><path style="opacity:1" fill="#fcc04b" d="M 284.5,223.5 C 289.844,223.334 295.177,223.501 300.5,224C 304.285,224.373 307.785,225.539 311,227.5C 311.27,228.932 310.604,229.932 309,230.5C 298.934,225.419 288.767,225.252 278.5,230C 276.712,235.251 278.712,238.251 284.5,239C 291.476,240.146 298.476,241.146 305.5,242C 308.637,242.601 311.637,243.601 314.5,245C 318.5,248.667 318.5,252.333 314.5,256C 307.593,259.482 300.259,260.982 292.5,260.5C 284.457,261.261 277.123,259.427 270.5,255C 271.665,253.916 272.998,253.083 274.5,252.5C 279.61,256.479 285.443,258.145 292,257.5C 298.752,257.877 305.086,256.544 311,253.5C 312.271,249.834 311.104,247.334 307.5,246C 299.257,244.173 290.923,242.84 282.5,242C 275.707,240.886 272.207,237.052 272,230.5C 275.464,226.69 279.631,224.356 284.5,223.5 Z"/></g>
<g><path style="opacity:1" fill="#fcbf49" d="M 340.5,223.5 C 341.833,223.5 343.167,223.5 344.5,223.5C 338.6,251.768 349.6,262.601 377.5,256C 382.428,254.073 385.594,250.573 387,245.5C 387.5,238.174 387.666,230.841 387.5,223.5C 388.5,223.5 389.5,223.5 390.5,223.5C 390.666,231.507 390.5,239.507 390,247.5C 388.947,253.553 385.447,257.387 379.5,259C 348.454,266.783 335.454,254.949 340.5,223.5 Z"/></g>
<g><path style="opacity:1" fill="#fcc04b" d="M 430.5,223.5 C 435.844,223.334 441.177,223.501 446.5,224C 450.285,224.373 453.785,225.539 457,227.5C 457.27,228.932 456.604,229.932 455,230.5C 444.934,225.419 434.767,225.252 424.5,230C 422.712,235.251 424.712,238.251 430.5,239C 437.476,240.146 444.476,241.146 451.5,242C 454.637,242.601 457.637,243.601 460.5,245C 464.5,248.667 464.5,252.333 460.5,256C 453.593,259.482 446.259,260.982 438.5,260.5C 430.457,261.261 423.123,259.427 416.5,255C 417.665,253.916 418.998,253.083 420.5,252.5C 425.61,256.479 431.443,258.145 438,257.5C 444.752,257.877 451.086,256.544 457,253.5C 458.271,249.834 457.104,247.334 453.5,246C 445.257,244.173 436.923,242.84 428.5,242C 421.707,240.886 418.207,237.052 418,230.5C 421.464,226.69 425.631,224.356 430.5,223.5 Z"/></g>
<g><path style="opacity:1" fill="#fdc972" d="M 279.5,220.5 C 275.44,222.297 271.94,224.963 269,228.5C 267.087,235.03 268.92,240.03 274.5,243.5C 273.833,243.5 273.5,243.833 273.5,244.5C 264.692,237.693 264.359,230.526 272.5,223C 274.65,221.589 276.984,220.755 279.5,220.5 Z"/></g>
<g><path style="opacity:1" fill="#fdc972" d="M 425.5,220.5 C 421.44,222.297 417.94,224.963 415,228.5C 413.087,235.03 414.92,240.03 420.5,243.5C 419.833,243.5 419.5,243.833 419.5,244.5C 410.692,237.693 410.359,230.526 418.5,223C 420.65,221.589 422.984,220.755 425.5,220.5 Z"/></g>
<g><path style="opacity:1" fill="#fcc04c" d="M 273.5,244.5 C 273.5,243.833 273.833,243.5 274.5,243.5C 285.382,246.402 296.382,248.735 307.5,250.5C 306.286,252.069 304.619,252.902 302.5,253C 299.833,253.167 297.167,253.333 294.5,253.5C 286.968,254.133 280.301,252.133 274.5,247.5C 271.749,249.293 268.916,250.959 266,252.5C 265.685,253.908 266.018,255.241 267,256.5C 270.917,260.709 275.75,263.209 281.5,264C 290.23,264.876 298.896,264.542 307.5,263C 316.444,261.407 320.944,256.24 321,247.5C 318.16,241.996 313.66,238.829 307.5,238C 299.471,237.219 291.471,236.219 283.5,235C 281.003,232.74 281.67,231.407 285.5,231C 293.974,229.562 301.807,231.062 309,235.5C 312.253,233.457 315.42,231.29 318.5,229C 314.356,223.927 309.023,220.927 302.5,220C 294.811,219.353 287.144,219.52 279.5,220.5C 297.643,214.178 312.809,218.511 325,233.5C 325.667,234.5 325.667,235.5 325,236.5C 322.667,238.006 320.5,239.673 318.5,241.5C 327.758,247.106 330.258,254.772 326,264.5C 312.041,272.826 297.207,274.66 281.5,270C 274.073,266.074 268.073,260.574 263.5,253.5C 266.109,250.856 269.109,248.689 272.5,247C 273.252,246.329 273.586,245.496 273.5,244.5 Z"/></g>
<g><path style="opacity:1" fill="#fcc04c" d="M 419.5,244.5 C 419.5,243.833 419.833,243.5 420.5,243.5C 431.382,246.402 442.382,248.735 453.5,250.5C 452.286,252.069 450.619,252.902 448.5,253C 445.833,253.167 443.167,253.333 440.5,253.5C 432.968,254.133 426.301,252.133 420.5,247.5C 417.749,249.293 414.916,250.959 412,252.5C 411.685,253.908 412.018,255.241 413,256.5C 416.917,260.709 421.75,263.209 427.5,264C 436.23,264.876 444.896,264.542 453.5,263C 462.444,261.407 466.944,256.24 467,247.5C 464.16,241.996 459.66,238.829 453.5,238C 445.471,237.219 437.471,236.219 429.5,235C 427.003,232.74 427.67,231.407 431.5,231C 439.974,229.562 447.807,231.062 455,235.5C 458.253,233.457 461.42,231.29 464.5,229C 460.356,223.927 455.023,220.927 448.5,220C 440.811,219.353 433.144,219.52 425.5,220.5C 443.643,214.178 458.809,218.511 471,233.5C 471.667,234.5 471.667,235.5 471,236.5C 468.667,238.006 466.5,239.673 464.5,241.5C 473.758,247.106 476.258,254.772 472,264.5C 458.041,272.826 443.207,274.66 427.5,270C 420.073,266.074 414.073,260.574 409.5,253.5C 412.109,250.856 415.109,248.689 418.5,247C 419.252,246.329 419.586,245.496 419.5,244.5 Z"/></g>
<g><path style="opacity:1" fill="#fdc665" d="M 381.5,243.5 C 382.338,243.842 382.672,244.508 382.5,245.5C 382.16,248.675 380.493,250.841 377.5,252C 371.593,253.361 365.593,253.861 359.5,253.5C 363.5,252.833 367.5,252.167 371.5,251.5C 377.259,251.644 380.592,248.978 381.5,243.5 Z"/></g>
<g><path style="opacity:1" fill="#fdd8a8" d="M 358.5,251.5 C 362.833,251.5 367.167,251.5 371.5,251.5C 367.5,252.167 363.5,252.833 359.5,253.5C 358.209,253.737 357.209,253.404 356.5,252.5C 357.492,252.672 358.158,252.338 358.5,251.5 Z"/></g>
<g><path style="opacity:1" fill="#fdd08d" d="M 40.5,282.5 C 27.7521,282.168 15.7521,282.501 4.5,283.5C 4.5,298.5 4.5,313.5 4.5,328.5C 3.66175,328.842 3.32842,329.508 3.5,330.5C 2.50356,314.342 2.17023,298.009 2.5,281.5C 15.3443,281.171 28.011,281.505 40.5,282.5 Z"/></g>
<g><path style="opacity:1" fill="#fcc359" d="M 242.5,309.5 C 242.171,312.032 241.005,313.032 239,312.5C 232.305,303.305 225.805,293.971 219.5,284.5C 214.833,283.167 210.167,283.167 205.5,284.5C 213.767,296.051 221.767,307.717 229.5,319.5C 220.363,307.516 211.363,295.35 202.5,283C 208.833,282.333 215.167,282.333 221.5,283C 227.79,291.746 233.956,300.579 240,309.5C 240.77,310.598 241.603,310.598 242.5,309.5 Z"/></g>
<g><path style="opacity:1" fill="#fcbf49" d="M 260.5,283.5 C 266.319,282.347 272.319,282.181 278.5,283C 280.037,284.707 281.704,286.207 283.5,287.5C 283.5,288.167 283.5,288.833 283.5,289.5C 272.399,304.845 261.399,320.345 250.5,336C 247.833,336.667 245.167,336.667 242.5,336C 239.223,333.234 236.557,330.067 234.5,326.5C 237.568,328.632 240.901,328.965 244.5,327.5C 254.5,313.167 264.5,298.833 274.5,284.5C 269.88,283.507 265.214,283.173 260.5,283.5 Z"/></g>
<g><path style="opacity:1" fill="#fde7cc" d="M 299.5,282.5 C 294.833,282.5 290.167,282.5 285.5,282.5C 285.5,298.5 285.5,314.5 285.5,330.5C 284.833,316.833 284.167,303.167 283.5,289.5C 283.5,288.833 283.5,288.167 283.5,287.5C 284.461,285.735 284.795,283.735 284.5,281.5C 289.695,281.179 294.695,281.513 299.5,282.5 Z"/></g>
<g><path style="opacity:1" fill="#fcbf48" d="M 299.5,282.5 C 301.167,284.5 302.833,286.5 304.5,288.5C 304.5,304.167 304.5,319.833 304.5,335.5C 300.167,335.5 295.833,335.5 291.5,335.5C 289.5,333.833 287.5,332.167 285.5,330.5C 285.5,314.5 285.5,298.5 285.5,282.5C 290.167,282.5 294.833,282.5 299.5,282.5 Z"/></g>
<g><path style="opacity:1" fill="#fde6ca" d="M 367.5,282.5 C 362.833,282.5 358.167,282.5 353.5,282.5C 353.5,290.5 353.5,298.5 353.5,306.5C 352.508,306.672 351.842,306.338 351.5,305.5C 352.492,297.684 352.826,289.684 352.5,281.5C 357.695,281.179 362.695,281.513 367.5,282.5 Z"/></g>
<g><path style="opacity:1" fill="#fcc04d" d="M 326.5,283.5 C 326.167,283.5 325.833,283.5 325.5,283.5C 322.5,283.5 319.5,283.5 316.5,283.5C 316.5,298.5 316.5,313.5 316.5,328.5C 320.167,328.5 323.833,328.5 327.5,328.5C 328.167,319.833 328.833,311.167 329.5,302.5C 338.302,311.133 347.302,319.633 356.5,328C 359.482,328.498 362.482,328.665 365.5,328.5C 365.5,313.5 365.5,298.5 365.5,283.5C 361.833,283.5 358.167,283.5 354.5,283.5C 354.666,292.173 354.5,300.84 354,309.5C 353.617,308.944 353.117,308.611 352.5,308.5C 352.833,307.833 353.167,307.167 353.5,306.5C 353.5,298.5 353.5,290.5 353.5,282.5C 358.167,282.5 362.833,282.5 367.5,282.5C 369.099,284.604 370.932,286.604 373,288.5C 373.5,304.497 373.667,320.497 373.5,336.5C 370.15,336.665 366.817,336.498 363.5,336C 354.65,327.649 345.65,319.482 336.5,311.5C 335.502,319.807 335.169,328.14 335.5,336.5C 330.821,336.666 326.155,336.499 321.5,336C 319.667,334.167 317.833,332.333 316,330.5C 315.5,314.503 315.333,298.503 315.5,282.5C 319.371,282.185 323.038,282.518 326.5,283.5 Z"/></g>
<g><path style="opacity:1" fill="#fde6cb" d="M 467.5,282.5 C 462.833,282.5 458.167,282.5 453.5,282.5C 453.5,298.5 453.5,314.5 453.5,330.5C 452.504,314.342 452.17,298.009 452.5,281.5C 457.695,281.179 462.695,281.513 467.5,282.5 Z"/></g>
<g><path style="opacity:1" fill="#fcbf48" d="M 467.5,282.5 C 469.167,284.5 470.833,286.5 472.5,288.5C 472.5,304.167 472.5,319.833 472.5,335.5C 468.167,335.5 463.833,335.5 459.5,335.5C 457.5,333.833 455.5,332.167 453.5,330.5C 453.5,314.5 453.5,298.5 453.5,282.5C 458.167,282.5 462.833,282.5 467.5,282.5 Z"/></g>
<g><path style="opacity:1" fill="#fff7ef" d="M 4.5,283.5 C 17.5043,283.333 30.5043,283.5 43.5,284C 53.613,286.716 57.113,293.216 54,303.5C 51.0508,308.728 46.5508,311.561 40.5,312C 32.1733,312.5 23.84,312.666 15.5,312.5C 15.5,317.833 15.5,323.167 15.5,328.5C 11.8333,328.5 8.16667,328.5 4.5,328.5C 4.5,313.5 4.5,298.5 4.5,283.5 Z"/></g>
<g><path style="opacity:1" fill="#fff8f0" d="M 141.5,309.5 C 139.828,297.837 144.162,289.504 154.5,284.5C 165.615,282.799 176.615,283.299 187.5,286C 193.164,288.332 196.664,292.499 198,298.5C 201.64,313.74 196.14,323.573 181.5,328C 173.833,328.667 166.167,328.667 158.5,328C 148.114,326.115 142.447,319.949 141.5,309.5 Z"/></g>
<g><path style="opacity:1" fill="#fff9f2" d="M 242.5,309.5 C 243.906,309.027 244.573,308.027 244.5,306.5C 247.605,303.725 249.938,300.392 251.5,296.5C 252.906,296.027 253.573,295.027 253.5,293.5C 256.605,290.725 258.938,287.392 260.5,283.5C 265.214,283.173 269.88,283.507 274.5,284.5C 264.5,298.833 254.5,313.167 244.5,327.5C 240.901,328.965 237.568,328.632 234.5,326.5C 233.567,323.63 231.9,321.296 229.5,319.5C 221.767,307.717 213.767,296.051 205.5,284.5C 210.167,283.167 214.833,283.167 219.5,284.5C 225.805,293.971 232.305,303.305 239,312.5C 241.005,313.032 242.171,312.032 242.5,309.5 Z"/></g>
<g><path style="opacity:1" fill="#fefcf9" d="M 286.5,283.5 C 290.167,283.5 293.833,283.5 297.5,283.5C 297.5,298.5 297.5,313.5 297.5,328.5C 293.833,328.5 290.167,328.5 286.5,328.5C 286.5,313.5 286.5,298.5 286.5,283.5 Z"/></g>
<g><path style="opacity:1" fill="#fffaf4" d="M 325.5,283.5 C 334.173,292.173 343.173,300.506 352.5,308.5C 353.117,308.611 353.617,308.944 354,309.5C 354.5,300.84 354.666,292.173 354.5,283.5C 358.167,283.5 361.833,283.5 365.5,283.5C 365.5,298.5 365.5,313.5 365.5,328.5C 362.482,328.665 359.482,328.498 356.5,328C 347.302,319.633 338.302,311.133 329.5,302.5C 329.44,301.957 329.107,301.624 328.5,301.5C 327.502,310.475 327.168,319.475 327.5,328.5C 323.833,328.5 320.167,328.5 316.5,328.5C 316.5,313.5 316.5,298.5 316.5,283.5C 319.5,283.5 322.5,283.5 325.5,283.5 Z"/></g>
<g><path style="opacity:1" fill="#fff8f1" d="M 429.5,285.5 C 432.984,288.152 435.984,291.318 438.5,295C 436.258,298.055 433.258,300.222 429.5,301.5C 421.36,294.814 412.026,292.647 401.5,295C 394.334,297.834 391.834,303.001 394,310.5C 395.48,313.817 397.98,315.817 401.5,316.5C 407.167,317.833 412.833,317.833 418.5,316.5C 422.87,315.815 426.536,313.815 429.5,310.5C 432.039,312.2 434.705,313.7 437.5,315C 438.517,316.049 438.684,317.216 438,318.5C 433.976,323.592 428.809,326.759 422.5,328C 414.5,328.667 406.5,328.667 398.5,328C 390.019,326.018 384.686,320.852 382.5,312.5C 382.5,308.167 382.5,303.833 382.5,299.5C 384.171,292.327 388.504,287.493 395.5,285C 406.876,282.922 418.209,283.089 429.5,285.5 Z"/></g>
<g><path style="opacity:1" fill="#fefcf9" d="M 454.5,283.5 C 458.167,283.5 461.833,283.5 465.5,283.5C 465.5,298.5 465.5,313.5 465.5,328.5C 461.833,328.5 458.167,328.5 454.5,328.5C 454.5,313.5 454.5,298.5 454.5,283.5 Z"/></g>
<g><path style="opacity:1" fill="#fff9f2" d="M 482.5,322.5 C 484.9,320.704 486.567,318.37 487.5,315.5C 495.521,305.472 503.187,295.139 510.5,284.5C 513.23,283.183 516.063,283.183 519,284.5C 528.797,299.262 538.964,313.762 549.5,328C 544.833,328.667 540.167,328.667 535.5,328C 533.167,325 530.833,322 528.5,319C 518.833,318.333 509.167,318.333 499.5,319C 497.5,322 495.5,325 493.5,328C 488.833,328.667 484.167,328.667 479.5,328C 480.758,326.259 481.758,324.426 482.5,322.5 Z"/></g>
<g><path style="opacity:1" fill="#fff7ef" d="M 566.5,307.5 C 560.92,304.03 559.087,299.03 561,292.5C 563.94,288.963 567.44,286.297 571.5,284.5C 579.144,283.52 586.811,283.353 594.5,284C 601.023,284.927 606.356,287.927 610.5,293C 607.42,295.29 604.253,297.457 601,299.5C 593.807,295.062 585.974,293.562 577.5,295C 573.67,295.407 573.003,296.74 575.5,299C 583.471,300.219 591.471,301.219 599.5,302C 605.66,302.829 610.16,305.996 613,311.5C 612.944,320.24 608.444,325.407 599.5,327C 590.896,328.542 582.23,328.876 573.5,328C 567.75,327.209 562.917,324.709 559,320.5C 558.018,319.241 557.685,317.908 558,316.5C 560.916,314.959 563.749,313.293 566.5,311.5C 572.301,316.133 578.968,318.133 586.5,317.5C 589.167,317.333 591.833,317.167 594.5,317C 596.619,316.902 598.286,316.069 599.5,314.5C 588.382,312.735 577.382,310.402 566.5,307.5 Z"/></g>
<g><path style="opacity:1" fill="#fcbf48" d="M 40.5,282.5 C 53.5139,283.655 60.8472,290.655 62.5,303.5C 62.4905,312.377 58.1571,317.544 49.5,319C 40.8397,319.5 32.1731,319.666 23.5,319.5C 22.5119,324.64 22.1786,329.974 22.5,335.5C 17.8333,335.5 13.1667,335.5 8.5,335.5C 6.52729,334.194 4.86063,332.527 3.5,330.5C 3.32842,329.508 3.66175,328.842 4.5,328.5C 8.16667,328.5 11.8333,328.5 15.5,328.5C 15.5,323.167 15.5,317.833 15.5,312.5C 23.84,312.666 32.1733,312.5 40.5,312C 46.5508,311.561 51.0508,308.728 54,303.5C 57.113,293.216 53.613,286.716 43.5,284C 30.5043,283.5 17.5043,283.333 4.5,283.5C 15.7521,282.501 27.7521,282.168 40.5,282.5 Z"/></g>
<g><path style="opacity:1" fill="#fcc04c" d="M 114.5,328.5 C 114.833,328.5 115.167,328.5 115.5,328.5C 120.511,328.666 125.511,328.499 130.5,328C 125.313,322.314 120.313,316.481 115.5,310.5C 122.942,304.509 124.442,297.176 120,288.5C 117.749,286.623 115.249,285.123 112.5,284C 98.8374,283.5 85.1707,283.333 71.5,283.5C 71.5,298.5 71.5,313.5 71.5,328.5C 75.5,328.5 79.5,328.5 83.5,328.5C 83.5,322.833 83.5,317.167 83.5,311.5C 89.5092,311.334 95.5092,311.501 101.5,312C 103.054,314.287 104.721,316.454 106.5,318.5C 100.974,318.179 95.6405,318.512 90.5,319.5C 90.5,325.167 90.5,330.833 90.5,336.5C 85.8215,336.666 81.1548,336.499 76.5,336C 74.6667,334.167 72.8333,332.333 71,330.5C 70.5001,314.503 70.3334,298.503 70.5,282.5C 84.8372,282.333 99.1705,282.5 113.5,283C 125.9,287.709 131.067,296.542 129,309.5C 127.913,312.581 126.08,315.081 123.5,317C 128.444,323.615 133.777,329.948 139.5,336C 133.5,336.667 127.5,336.667 121.5,336C 118.961,333.63 116.628,331.13 114.5,328.5 Z"/></g>
<g><path style="opacity:1" fill="#fff8f0" d="M 115.5,328.5 C 112.49,325.126 109.49,321.792 106.5,318.5C 104.721,316.454 103.054,314.287 101.5,312C 95.5092,311.501 89.5092,311.334 83.5,311.5C 83.5,317.167 83.5,322.833 83.5,328.5C 79.5,328.5 75.5,328.5 71.5,328.5C 71.5,313.5 71.5,298.5 71.5,283.5C 85.1707,283.333 98.8374,283.5 112.5,284C 115.249,285.123 117.749,286.623 120,288.5C 124.442,297.176 122.942,304.509 115.5,310.5C 120.313,316.481 125.313,322.314 130.5,328C 125.511,328.499 120.511,328.666 115.5,328.5 Z"/></g>
<g><path style="opacity:1" fill="#fcc667" d="M 509.5,284.5 C 509.833,284.5 510.167,284.5 510.5,284.5C 503.187,295.139 495.521,305.472 487.5,315.5C 494.064,304.606 501.397,294.272 509.5,284.5 Z"/></g>
<g><path style="opacity:1" fill="#fcbf48" d="M 8.5,287.5 C 20.1714,287.333 31.8381,287.5 43.5,288C 46.4944,288.406 48.661,289.906 50,292.5C 51.9422,298.89 50.1088,303.723 44.5,307C 33.5486,308.35 22.5486,308.85 11.5,308.5C 11.5,313.833 11.5,319.167 11.5,324.5C 10.5,324.5 9.5,324.5 8.5,324.5C 8.5,312.167 8.5,299.833 8.5,287.5 Z"/></g>
<g><path style="opacity:1" fill="#fcc04b" d="M 75.5,287.5 C 87.5046,287.333 99.5046,287.5 111.5,288C 118.482,291.169 120.316,296.336 117,303.5C 114.404,305.549 111.571,307.215 108.5,308.5C 112.645,313.813 116.979,318.98 121.5,324C 119.741,324.798 118.074,324.631 116.5,323.5C 111.93,318.687 107.597,313.687 103.5,308.5C 95.5277,307.502 87.5277,307.169 79.5,307.5C 79.5,313.167 79.5,318.833 79.5,324.5C 78.1667,324.5 76.8333,324.5 75.5,324.5C 75.5,312.167 75.5,299.833 75.5,287.5 Z"/></g>
<g><path style="opacity:1" fill="#fcc04a" d="M 160.5,287.5 C 166.842,287.334 173.175,287.5 179.5,288C 192.596,290.999 197.429,299.166 194,312.5C 191.856,319.637 187.022,323.471 179.5,324C 173.167,324.667 166.833,324.667 160.5,324C 152.99,323.485 148.156,319.652 146,312.5C 142.69,299.089 147.523,290.756 160.5,287.5 Z"/></g>
<g><path style="opacity:1" fill="#fcc14f" d="M 212.5,288.5 C 214.035,287.212 215.701,287.212 217.5,288.5C 224.813,299.139 232.479,309.472 240.5,319.5C 248.067,309.38 255.4,299.047 262.5,288.5C 264.074,287.369 265.741,287.202 267.5,288C 260.297,297.572 253.464,307.405 247,317.5C 245.279,320.297 243.113,322.631 240.5,324.5C 238.971,324.471 237.804,323.804 237,322.5C 228.97,310.985 220.804,299.652 212.5,288.5 Z"/></g>
<g><path style="opacity:1" fill="#fcc669" d="M 260.5,283.5 C 258.938,287.392 256.605,290.725 253.5,293.5C 255.062,289.608 257.395,286.275 260.5,283.5 Z"/></g>
<g><path style="opacity:1" fill="#fbbf44" d="M 290.5,287.5 C 291.5,287.5 292.5,287.5 293.5,287.5C 293.5,299.833 293.5,312.167 293.5,324.5C 292.5,324.5 291.5,324.5 290.5,324.5C 290.5,312.167 290.5,299.833 290.5,287.5 Z"/></g>
<g><path style="opacity:1" fill="#fddfbb" d="M 290.5,287.5 C 291.568,286.566 292.901,286.232 294.5,286.5C 294.5,299.5 294.5,312.5 294.5,325.5C 292.901,325.768 291.568,325.434 290.5,324.5C 291.5,324.5 292.5,324.5 293.5,324.5C 293.5,312.167 293.5,299.833 293.5,287.5C 292.5,287.5 291.5,287.5 290.5,287.5 Z"/></g>
<g><path style="opacity:1" fill="#fcc150" d="M 358.5,287.5 C 359.5,287.5 360.5,287.5 361.5,287.5C 361.5,299.833 361.5,312.167 361.5,324.5C 360.5,324.5 359.5,324.5 358.5,324.5C 347.229,314.4 336.063,304.067 325,293.5C 324.5,303.828 324.334,314.161 324.5,324.5C 323.167,324.5 321.833,324.5 320.5,324.5C 320.5,312.167 320.5,299.833 320.5,287.5C 321.873,287.343 323.207,287.51 324.5,288C 335.35,298.351 346.35,308.517 357.5,318.5C 358.499,308.188 358.832,297.855 358.5,287.5 Z"/></g>
<g><path style="opacity:1" fill="#fddfb8" d="M 358.5,287.5 C 359.568,286.566 360.901,286.232 362.5,286.5C 362.5,299.5 362.5,312.5 362.5,325.5C 360.901,325.768 359.568,325.434 358.5,324.5C 359.5,324.5 360.5,324.5 361.5,324.5C 361.5,312.167 361.5,299.833 361.5,287.5C 360.5,287.5 359.5,287.5 358.5,287.5 Z"/></g>
<g><path style="opacity:1" fill="#fcc04b" d="M 400.5,287.5 C 409.226,287.161 417.893,287.661 426.5,289C 429.576,289.911 431.909,291.744 433.5,294.5C 432.672,295.415 431.672,296.081 430.5,296.5C 421.648,290.841 411.981,289.008 401.5,291C 389.336,295.514 386.169,303.681 392,315.5C 397.025,320.286 403.025,322.286 410,321.5C 417.53,321.823 424.363,319.823 430.5,315.5C 434.204,317.031 434.204,318.864 430.5,321C 428.283,322.275 425.949,323.275 423.5,324C 415.833,324.667 408.167,324.667 400.5,324C 386.917,319.967 382.417,311.134 387,297.5C 390.061,292.069 394.561,288.735 400.5,287.5 Z"/></g>
<g><path style="opacity:1" fill="#fbbf44" d="M 458.5,287.5 C 459.5,287.5 460.5,287.5 461.5,287.5C 461.5,299.833 461.5,312.167 461.5,324.5C 460.5,324.5 459.5,324.5 458.5,324.5C 458.5,312.167 458.5,299.833 458.5,287.5 Z"/></g>
<g><path style="opacity:1" fill="#fddfbb" d="M 458.5,287.5 C 459.568,286.566 460.901,286.232 462.5,286.5C 462.5,299.5 462.5,312.5 462.5,325.5C 460.901,325.768 459.568,325.434 458.5,324.5C 459.5,324.5 460.5,324.5 461.5,324.5C 461.5,312.167 461.5,299.833 461.5,287.5C 460.5,287.5 459.5,287.5 458.5,287.5 Z"/></g>
<g><path style="opacity:1" fill="#fcc04c" d="M 512.5,287.5 C 514.144,287.286 515.644,287.62 517,288.5C 525.29,300.246 533.457,312.08 541.5,324C 540.167,324.667 538.833,324.667 537.5,324C 535.306,321.305 533.306,318.472 531.5,315.5C 520.167,314.167 508.833,314.167 497.5,315.5C 495.377,318.246 493.377,321.079 491.5,324C 489.833,324.667 488.167,324.667 486.5,324C 495.386,311.954 504.052,299.788 512.5,287.5 Z"/></g>
<g><path style="opacity:1" fill="#fcc04b" d="M 576.5,287.5 C 581.844,287.334 587.177,287.501 592.5,288C 596.285,288.373 599.785,289.539 603,291.5C 603.27,292.932 602.604,293.932 601,294.5C 590.934,289.419 580.767,289.252 570.5,294C 568.712,299.251 570.712,302.251 576.5,303C 583.476,304.146 590.476,305.146 597.5,306C 600.637,306.601 603.637,307.601 606.5,309C 610.5,312.667 610.5,316.333 606.5,320C 599.593,323.482 592.259,324.982 584.5,324.5C 576.457,325.261 569.123,323.427 562.5,319C 563.665,317.916 564.998,317.083 566.5,316.5C 571.61,320.479 577.443,322.145 584,321.5C 590.752,321.877 597.086,320.544 603,317.5C 604.271,313.834 603.104,311.334 599.5,310C 591.257,308.173 582.923,306.84 574.5,306C 567.707,304.886 564.207,301.052 564,294.5C 567.464,290.69 571.631,288.356 576.5,287.5 Z"/></g>
<g><path style="opacity:1" fill="#fcc874" d="M 304.5,288.5 C 305.496,304.325 305.83,320.325 305.5,336.5C 300.637,336.819 295.97,336.486 291.5,335.5C 295.833,335.5 300.167,335.5 304.5,335.5C 304.5,319.833 304.5,304.167 304.5,288.5 Z"/></g>
<g><path style="opacity:1" fill="#fcc874" d="M 472.5,288.5 C 473.496,304.325 473.83,320.325 473.5,336.5C 468.637,336.819 463.97,336.486 459.5,335.5C 463.833,335.5 468.167,335.5 472.5,335.5C 472.5,319.833 472.5,304.167 472.5,288.5 Z"/></g>
<g><path style="opacity:1" fill="#fcc04c" d="M 140.5,311.5 C 140.328,310.508 140.662,309.842 141.5,309.5C 142.447,319.949 148.114,326.115 158.5,328C 166.167,328.667 173.833,328.667 181.5,328C 196.14,323.573 201.64,313.74 198,298.5C 196.664,292.499 193.164,288.332 187.5,286C 176.615,283.299 165.615,282.799 154.5,284.5C 155.263,283.732 156.263,283.232 157.5,283C 165.833,282.333 174.167,282.333 182.5,283C 199.041,288.187 206.874,299.354 206,316.5C 204.796,326.034 199.629,332.2 190.5,335C 176.742,338.337 163.742,336.671 151.5,330C 145.496,325.176 141.83,319.009 140.5,311.5 Z"/></g>
<g><path style="opacity:1" fill="#fcc35c" d="M 429.5,285.5 C 418.209,283.089 406.876,282.922 395.5,285C 388.504,287.493 384.171,292.327 382.5,299.5C 381.833,299.5 381.5,299.167 381.5,298.5C 383.576,290.59 388.576,285.423 396.5,283C 406.167,282.333 415.833,282.333 425.5,283C 427.066,283.608 428.4,284.442 429.5,285.5 Z"/></g>
<g><path style="opacity:1" fill="#fff7ef" d="M 11.5,290.5 C 21.8387,290.334 32.172,290.5 42.5,291C 49.1667,295.333 49.1667,299.667 42.5,304C 32.172,304.5 21.8387,304.666 11.5,304.5C 11.5,299.833 11.5,295.167 11.5,290.5 Z"/></g>
<g><path style="opacity:1" fill="#fffaf6" d="M 79.5,290.5 C 89.5056,290.334 99.5056,290.5 109.5,291C 115.006,292.841 116.506,296.341 114,301.5C 112.67,302.582 111.17,303.249 109.5,303.5C 99.5,303.5 89.5,303.5 79.5,303.5C 79.5,299.167 79.5,294.833 79.5,290.5 Z"/></g>
<g><path style="opacity:1" fill="#fff8f0" d="M 161.5,290.5 C 167.176,290.334 172.843,290.501 178.5,291C 191.696,295.575 194.862,304.075 188,316.5C 182.664,320.388 176.664,322.054 170,321.5C 154.691,323.187 147.691,316.52 149,301.5C 150.891,295.153 155.057,291.486 161.5,290.5 Z"/></g>
<g><path style="opacity:1" fill="#fdc76c" d="M 325.5,283.5 C 325.833,283.5 326.167,283.5 326.5,283.5C 334.833,290.833 343.167,298.167 351.5,305.5C 351.842,306.338 352.508,306.672 353.5,306.5C 353.167,307.167 352.833,307.833 352.5,308.5C 343.173,300.506 334.173,292.173 325.5,283.5 Z"/></g>
<g><path style="opacity:1" fill="#fcc66a" d="M 154.5,284.5 C 144.162,289.504 139.828,297.837 141.5,309.5C 140.662,309.842 140.328,310.508 140.5,311.5C 137.808,301.08 140.808,292.58 149.5,286C 151.025,284.991 152.692,284.491 154.5,284.5 Z"/></g>
<g><path style="opacity:1" fill="#fcc04b" d="M 429.5,285.5 C 436.708,288.537 442.208,293.537 446,300.5C 446.749,301.635 446.583,302.635 445.5,303.5C 442.167,305.5 438.833,307.5 435.5,309.5C 432.919,306.752 429.919,304.586 426.5,303C 420.167,302.333 413.833,302.333 407.5,303C 401.998,305.347 399.664,309.514 400.5,315.5C 401.5,315.5 402.5,315.5 403.5,315.5C 403.158,316.338 402.492,316.672 401.5,316.5C 397.98,315.817 395.48,313.817 394,310.5C 391.834,303.001 394.334,297.834 401.5,295C 412.026,292.647 421.36,294.814 429.5,301.5C 433.258,300.222 436.258,298.055 438.5,295C 435.984,291.318 432.984,288.152 429.5,285.5 Z"/></g>
<g><path style="opacity:1" fill="#fff7ee" d="M 513.5,292.5 C 515.017,292.511 516.184,293.177 517,294.5C 520.444,300.276 524.277,305.776 528.5,311C 519.167,311.667 509.833,311.667 500.5,311C 505.212,305.067 509.545,298.9 513.5,292.5 Z"/></g>
<g><path style="opacity:1" fill="#fcbf45" d="M 15.5,294.5 C 23.84,294.334 32.1733,294.5 40.5,295C 44.5,296.667 44.5,298.333 40.5,300C 32.1733,300.5 23.84,300.666 15.5,300.5C 15.5,298.5 15.5,296.5 15.5,294.5 Z"/></g>
<g><path style="opacity:1" fill="#fcc04a" d="M 82.5,294.5 C 91.1731,294.334 99.8397,294.5 108.5,295C 112.5,296.667 112.5,298.333 108.5,300C 99.8397,300.5 91.1731,300.666 82.5,300.5C 82.5,298.5 82.5,296.5 82.5,294.5 Z"/></g>
<g><path style="opacity:1" fill="#fcc04d" d="M 180.5,315.5 C 184.96,312.419 186.627,308.086 185.5,302.5C 178.385,302.075 171.385,302.575 164.5,304C 160.18,307.447 159.513,311.28 162.5,315.5C 162.158,316.338 161.492,316.672 160.5,316.5C 152.242,312.66 150.409,306.66 155,298.5C 159.277,295.387 164.111,294.054 169.5,294.5C 175.118,294.196 180.285,295.529 185,298.5C 188.634,304.389 188.134,309.889 183.5,315C 182.552,315.483 181.552,315.649 180.5,315.5 Z"/></g>
<g><path style="opacity:1" fill="#fcc564" d="M 253.5,293.5 C 253.573,295.027 252.906,296.027 251.5,296.5C 251.427,294.973 252.094,293.973 253.5,293.5 Z"/></g>
<g><path style="opacity:1" fill="#fcc04c" d="M 513.5,298.5 C 516.392,300.731 518.726,303.564 520.5,307C 516.459,307.827 512.459,307.66 508.5,306.5C 510.689,304.113 512.356,301.447 513.5,298.5 Z"/></g>
<g><path style="opacity:1" fill="#fcc76b" d="M 251.5,296.5 C 249.938,300.392 247.605,303.725 244.5,306.5C 246.062,302.608 248.395,299.275 251.5,296.5 Z"/></g>
<g><path style="opacity:1" fill="#fdc972" d="M 571.5,284.5 C 567.44,286.297 563.94,288.963 561,292.5C 559.087,299.03 560.92,304.03 566.5,307.5C 565.833,307.5 565.5,307.833 565.5,308.5C 556.692,301.693 556.359,294.526 564.5,287C 566.65,285.589 568.984,284.755 571.5,284.5 Z"/></g>
<g><path style="opacity:1" fill="#fffdfc" d="M 180.5,315.5 C 179.167,315.5 177.833,315.5 176.5,315.5C 171.833,315.5 167.167,315.5 162.5,315.5C 159.513,311.28 160.18,307.447 164.5,304C 171.385,302.575 178.385,302.075 185.5,302.5C 186.627,308.086 184.96,312.419 180.5,315.5 Z"/></g>
<g><path style="opacity:1" fill="#fde0bc" d="M 329.5,302.5 C 328.833,311.167 328.167,319.833 327.5,328.5C 327.168,319.475 327.502,310.475 328.5,301.5C 329.107,301.624 329.44,301.957 329.5,302.5 Z"/></g>
<g><path style="opacity:1" fill="#feddb4" d="M 79.5,290.5 C 79.5,294.833 79.5,299.167 79.5,303.5C 89.5,303.5 99.5,303.5 109.5,303.5C 99.3468,304.494 89.0135,304.828 78.5,304.5C 78.1805,299.637 78.5139,294.97 79.5,290.5 Z"/></g>
<g><path style="opacity:1" fill="#ffd79b" d="M 381.5,298.5 C 381.5,299.167 381.833,299.5 382.5,299.5C 382.5,303.833 382.5,308.167 382.5,312.5C 382.167,312.5 381.833,312.5 381.5,312.5C 380.167,307.833 380.167,303.167 381.5,298.5 Z"/></g>
<g><path style="opacity:1" fill="#fcc564" d="M 244.5,306.5 C 244.573,308.027 243.906,309.027 242.5,309.5C 242.427,307.973 243.094,306.973 244.5,306.5 Z"/></g>
<g><path style="opacity:1" fill="#fcc04c" d="M 565.5,308.5 C 565.5,307.833 565.833,307.5 566.5,307.5C 577.382,310.402 588.382,312.735 599.5,314.5C 598.286,316.069 596.619,316.902 594.5,317C 591.833,317.167 589.167,317.333 586.5,317.5C 578.968,318.133 572.301,316.133 566.5,311.5C 563.749,313.293 560.916,314.959 558,316.5C 557.685,317.908 558.018,319.241 559,320.5C 562.917,324.709 567.75,327.209 573.5,328C 582.23,328.876 590.896,328.542 599.5,327C 608.444,325.407 612.944,320.24 613,311.5C 610.16,305.996 605.66,302.829 599.5,302C 591.471,301.219 583.471,300.219 575.5,299C 573.003,296.74 573.67,295.407 577.5,295C 585.974,293.562 593.807,295.062 601,299.5C 604.253,297.457 607.42,295.29 610.5,293C 606.356,287.927 601.023,284.927 594.5,284C 586.811,283.353 579.144,283.52 571.5,284.5C 589.643,278.178 604.809,282.511 617,297.5C 617.667,298.5 617.667,299.5 617,300.5C 614.667,302.006 612.5,303.673 610.5,305.5C 619.758,311.106 622.258,318.772 618,328.5C 604.041,336.826 589.207,338.66 573.5,334C 566.073,330.074 560.073,324.574 555.5,317.5C 558.109,314.856 561.109,312.689 564.5,311C 565.252,310.329 565.586,309.496 565.5,308.5 Z"/></g>
<g><path style="opacity:1" fill="#fdd8a8" d="M 162.5,315.5 C 167.167,315.5 171.833,315.5 176.5,315.5C 172.167,316.167 167.833,316.833 163.5,317.5C 162.209,317.737 161.209,317.404 160.5,316.5C 161.492,316.672 162.158,316.338 162.5,315.5 Z"/></g>
<g><path style="opacity:1" fill="#fcc04d" d="M 381.5,312.5 C 381.833,312.5 382.167,312.5 382.5,312.5C 384.686,320.852 390.019,326.018 398.5,328C 406.5,328.667 414.5,328.667 422.5,328C 428.809,326.759 433.976,323.592 438,318.5C 438.684,317.216 438.517,316.049 437.5,315C 434.705,313.7 432.039,312.2 429.5,310.5C 426.536,313.815 422.87,315.815 418.5,316.5C 417.508,316.672 416.842,316.338 416.5,315.5C 421.749,315.125 425.915,312.792 429,308.5C 435.368,311.516 441.035,315.516 446,320.5C 446.667,321.833 446.667,323.167 446,324.5C 442.062,329.88 436.896,333.38 430.5,335C 417.611,338.047 405.278,336.714 393.5,331C 390.333,327.833 387.167,324.667 384,321.5C 382.451,318.688 381.618,315.688 381.5,312.5 Z"/></g>
<g><path style="opacity:1" fill="#fed18f" d="M 403.5,315.5 C 407.833,315.5 412.167,315.5 416.5,315.5C 416.842,316.338 417.508,316.672 418.5,316.5C 412.833,317.833 407.167,317.833 401.5,316.5C 402.492,316.672 403.158,316.338 403.5,315.5 Z"/></g>
<g><path style="opacity:1" fill="#fcc257" d="M 176.5,315.5 C 177.833,315.5 179.167,315.5 180.5,315.5C 179.737,316.268 178.737,316.768 177.5,317C 172.845,317.499 168.179,317.666 163.5,317.5C 167.833,316.833 172.167,316.167 176.5,315.5 Z"/></g>
<g><path style="opacity:1" fill="#fcc973" d="M 90.5,319.5 C 95.6405,318.512 100.974,318.179 106.5,318.5C 109.49,321.792 112.49,325.126 115.5,328.5C 115.167,328.5 114.833,328.5 114.5,328.5C 111.334,326.166 108.667,323.333 106.5,320C 101.177,319.501 95.8437,319.334 90.5,319.5 Z"/></g>
<g><path style="opacity:1" fill="#fcc04c" d="M 556.5,334.5 C 551.695,335.487 546.695,335.821 541.5,335.5C 538.369,332.871 535.369,330.038 532.5,327C 523.833,326.333 515.167,326.333 506.5,327C 504.306,329.695 502.306,332.528 500.5,335.5C 494.528,336.664 488.528,336.83 482.5,336C 480.5,334 478.5,332 476.5,330C 478.159,327.156 480.159,324.656 482.5,322.5C 481.758,324.426 480.758,326.259 479.5,328C 484.167,328.667 488.833,328.667 493.5,328C 495.5,325 497.5,322 499.5,319C 509.167,318.333 518.833,318.333 528.5,319C 530.833,322 533.167,325 535.5,328C 540.167,328.667 544.833,328.667 549.5,328C 538.964,313.762 528.797,299.262 519,284.5C 516.063,283.183 513.23,283.183 510.5,284.5C 510.167,284.5 509.833,284.5 509.5,284.5C 515.633,280.991 520.8,282.324 525,288.5C 535.721,303.714 546.221,319.047 556.5,334.5 Z"/></g>
<g><path style="opacity:1" fill="#fcc45f" d="M 487.5,315.5 C 486.567,318.37 484.9,320.704 482.5,322.5C 483.433,319.63 485.1,317.296 487.5,315.5 Z"/></g>
<g><path style="opacity:1" fill="#fcc461" d="M 229.5,319.5 C 231.9,321.296 233.567,323.63 234.5,326.5C 232.1,324.704 230.433,322.37 229.5,319.5 Z"/></g>
<g><path style="opacity:1" fill="#fdd397" d="M 23.5,319.5 C 23.5,325.167 23.5,330.833 23.5,336.5C 18.3054,336.821 13.3054,336.487 8.5,335.5C 13.1667,335.5 17.8333,335.5 22.5,335.5C 22.1786,329.974 22.5119,324.64 23.5,319.5 Z"/></g>
<g><path style="opacity:1" fill="#fccc84" d="M 556.5,334.5 C 557.043,334.56 557.376,334.893 557.5,335.5C 552.014,336.815 546.68,336.815 541.5,335.5C 546.695,335.821 551.695,335.487 556.5,334.5 Z"/></g>
<g><path style="opacity:1" fill="#3399cc" d="M -0.5,399.5 C 209.5,399.5 419.5,399.5 629.5,399.5C 629.5,432.833 629.5,466.167 629.5,499.5C 419.5,499.5 209.5,499.5 -0.5,499.5C -0.5,466.167 -0.5,432.833 -0.5,399.5 Z"/></g>
</svg>
